D:\school\WTK\thesis\model\3dpredictsim\Results\Batchsim_tmt_linear_v2\Pog_s1_tmt_bCst_d00_k2000_ig24_pas_GRF.mot
nRows=12
nColumns=19

name D:\school\WTK\thesis\model\3dpredictsim\Results\Batchsim_tmt_linear_v2\Pog_s1_tmt_bCst_d00_k2000_ig24_pas_GRF.mot
datacolumns 19
datarows 12
range 0.0000000000 0.1180103909
endheader
time 	ground_force_vx	ground_force_vy	ground_force_vz	ground_force_px	ground_force_py	ground_force_pz	1_ground_force_vx	1_ground_force_vy	1_ground_force_vz	1_ground_force_px	1_ground_force_py	1_ground_force_pz	ground_torque_x	ground_torque_y	ground_torque_z	1_ground_torque_x	1_ground_torque_y	1_ground_torque_z
        0.0000000000	      -61.3422826930	       42.4520939735	       10.1615267477	        0.1592056732	        0.0000000000	        0.0471372808	      124.5930981970	      519.8754325129	        4.5252138821	       -0.3463638603	        0.0000000000	       -0.0490471334	        0.0000000000	        0.0000000000	        0.0000000000	        0.0000000000	        0.0000000000	        0.0000000000	
        0.0107282174	     -113.4270894139	       96.7177295161	       25.1695390152	        0.1698591827	        0.0000000000	        0.0453214124	       98.2319395312	      432.0639590261	       -0.5516211034	       -0.3360339139	        0.0000000000	       -0.0476720825	        0.0000000000	        0.0000000000	        0.0000000000	        0.0000000000	        0.0000000000	        0.0000000000	
        0.0214564347	     -115.8508501646	      209.0860593760	       47.6209073295	        0.1768499074	        0.0000000000	        0.0443751520	       64.1273863692	      330.9212826646	       -6.3903264508	       -0.3195403152	        0.0000000000	       -0.0451128396	        0.0000000000	        0.0000000000	        0.0000000000	        0.0000000000	        0.0000000000	        0.0000000000	
        0.0321846521	      -61.6142748841	      381.7212920311	        7.2957893991	        0.1818542308	        0.0000000000	        0.0436445388	       29.7539499930	      233.6361244644	       -5.9504044590	       -0.2941589517	        0.0000000000	       -0.0406271617	        0.0000000000	        0.0000000000	        0.0000000000	        0.0000000000	        0.0000000000	        0.0000000000	
        0.0429128694	      -73.1046366384	      593.8797824209	       -7.0310307744	        0.1903589446	        0.0000000000	        0.0458304438	        7.2135695263	      160.4446554447	       -8.8482687090	       -0.2642254732	        0.0000000000	       -0.0333813055	        0.0000000000	        0.0000000000	        0.0000000000	        0.0000000000	        0.0000000000	        0.0000000000	
        0.0536410868	     -111.4900445915	      799.7838467465	      -14.6504515593	        0.1988792810	        0.0000000000	        0.0483947407	       -0.3836335856	      134.0111014105	      -12.1560552257	       -0.2608142276	        0.0000000000	       -0.0324870819	        0.0000000000	        0.0000000000	        0.0000000000	        0.0000000000	        0.0000000000	        0.0000000000	
        0.0643693041	     -127.4325674586	      902.8706809463	      -18.0785296132	        0.2046501204	        0.0000000000	        0.0499813913	       -1.3924143296	      100.8428364338	      -14.0216714364	       -0.2602396959	        0.0000000000	       -0.0327127404	        0.0000000000	        0.0000000000	        0.0000000000	        0.0000000000	        0.0000000000	        0.0000000000	
        0.0750975215	     -124.1103881005	      908.4110977686	      -18.5182899144	        0.2088694053	        0.0000000000	        0.0510160907	       -4.6013699613	       64.2995001673	      -13.1015174403	       -0.2598048782	        0.0000000000	       -0.0328464211	        0.0000000000	        0.0000000000	        0.0000000000	        0.0000000000	        0.0000000000	        0.0000000000	
        0.0858257388	     -113.7258539486	      871.1709342666	      -17.9375852383	        0.2125092610	        0.0000000000	        0.0517659461	       -8.8530824311	       26.3117458132	       -6.4921971678	       -0.2602143267	        0.0000000000	       -0.0325071039	        0.0000000000	        0.0000000000	        0.0000000000	        0.0000000000	        0.0000000000	        0.0000000000	
        0.0965539562	     -101.2488124263	      831.9774529279	      -16.2749869405	        0.2163563413	        0.0000000000	        0.0524005561	        0.1619078588	       -0.1610954571	        0.0138944809	        0.0000000000	        0.0000000000	        0.0000000000	        0.0000000000	        0.0000000000	        0.0000000000	        0.0000000000	        0.0000000000	        0.0000000000	
        0.1072821736	      -92.3196803234	      806.9246973177	      -17.3391439958	        0.2215049351	        0.0000000000	        0.0530612789	        0.0006018644	       -0.0004926287	       -0.0000019454	        0.0000000000	        0.0000000000	        0.0000000000	        0.0000000000	        0.0000000000	        0.0000000000	        0.0000000000	        0.0000000000	        0.0000000000	
        0.1180103909	      -85.0672068389	      784.1610767599	      -17.3150804373	        0.2277265815	        0.0000000000	        0.0532680525	        0.0002200040	       -0.0001564826	       -0.0000051544	        0.0000000000	        0.0000000000	        0.0000000000	        0.0000000000	        0.0000000000	        0.0000000000	        0.0000000000	        0.0000000000	        0.0000000000	
